<svg width="262" height="88" viewBox="0 0 262 88" fill="none" xmlns="http://www.w3.org/2000/svg">
<path d="M60 3.4283C57.7267 3.4283 55.5465 4.33136 53.9391 5.93881C52.3316 7.54627 51.4286 9.72644 51.4286 11.9997C51.4286 14.273 52.3316 16.4532 53.9391 18.0606C55.5465 19.6681 57.7267 20.5712 60 20.5712C62.2733 20.5712 64.4534 19.6681 66.0609 18.0606C67.6684 16.4532 68.5714 14.273 68.5714 11.9997C68.5714 9.72644 67.6684 7.54627 66.0609 5.93881C64.4534 4.33136 62.2733 3.4283 60 3.4283V3.4283Z" fill="#03A9F4"/>
<path d="M64.0714 11.1429C62.7643 11.1429 61.5107 11.6621 60.5864 12.5864C59.6621 13.5107 59.1429 14.7643 59.1429 16.0714C59.1429 17.3786 59.6621 18.6322 60.5864 19.5565C61.5107 20.4807 62.7643 21 64.0714 21C65.3786 21 66.6322 20.4807 67.5565 19.5565C68.4807 18.6322 69 17.3786 69 16.0714C69 14.7643 68.4807 13.5107 67.5565 12.5864C66.6322 11.6621 65.3786 11.1429 64.0714 11.1429V11.1429ZM55.9286 3C55.2813 3 54.6405 3.12748 54.0425 3.37517C53.4445 3.62285 52.9012 3.98588 52.4435 4.44355C51.9859 4.90121 51.6228 5.44453 51.3752 6.04249C51.1275 6.64045 51 7.28134 51 7.92857C51 8.5758 51.1275 9.21669 51.3752 9.81465C51.6228 10.4126 51.9859 10.9559 52.4435 11.4136C52.9012 11.8713 53.4445 12.2343 54.0425 12.482C54.6405 12.7297 55.2813 12.8571 55.9286 12.8571C56.5758 12.8571 57.2167 12.7297 57.8147 12.482C58.4126 12.2343 58.9559 11.8713 59.4136 11.4136C59.8713 10.9559 60.2343 10.4126 60.482 9.81465C60.7297 9.21669 60.8571 8.5758 60.8571 7.92857C60.8571 7.28134 60.7297 6.64045 60.482 6.04249C60.2343 5.44453 59.8713 4.90121 59.4136 4.44355C58.9559 3.98588 58.4126 3.62285 57.8147 3.37517C57.2167 3.12748 56.5758 3 55.9286 3V3Z" fill="#03A9F4"/>
<path d="M60.2579 17.1428C57.4285 17.1428 56.1428 15.7281 56.1428 14.6566C56.1428 14.0991 56.5276 13.7142 57.0852 13.7142C58.2856 13.7142 57.986 15.4722 60.2575 15.4722C61.4142 15.4722 62.057 14.8293 62.057 14.1865C62.057 13.7999 61.8848 13.3713 61.1146 13.1571L58.5852 12.5142C56.5713 11.9999 56.1865 10.8848 56.1865 9.81334C56.1865 7.62848 58.2003 6.85706 60.0856 6.85706C61.8432 6.85706 63.857 7.79948 63.857 9.0852C63.857 9.64277 63.4285 9.98605 62.8709 9.98605C61.8432 9.98605 62.0138 8.52805 59.9562 8.52805C58.9285 8.52805 58.3289 9.00034 58.3289 9.68648C58.3289 10.3713 59.1423 10.5856 59.8709 10.7579L61.7575 11.1865C63.8133 11.6566 64.2856 12.8571 64.2856 14.0138C64.2419 15.8133 62.9562 17.1428 60.2579 17.1428Z" fill="white"/>
<path d="M113.006 20.9904L103.011 20.9999C100.812 21.0019 99.0118 19.2048 99.0093 17.006L98.9998 7.01128C98.9978 4.81244 100.795 3.01189 102.994 3.00939L112.988 2.99989C115.187 2.9979 116.988 4.79495 116.99 6.99379L117 16.9885C117.002 19.1878 115.205 20.9884 113.006 20.9904Z" fill="url(#paint0_linear_2_1748)"/>
<path opacity="0.07" d="M103.307 10.2525C103.223 10.2525 103.136 10.272 103.055 10.3125C102.923 10.3785 102.824 10.4925 102.777 10.633C102.701 10.8595 102.779 11.108 102.97 11.251L104.808 12.399L104.736 12.59C104.703 12.6795 103.901 14.7915 102.385 15.6185C102.304 15.6625 102.253 15.7215 102.248 15.777C102.242 15.833 102.287 15.8835 102.325 15.9155C102.653 16.19 102.992 16.385 103.668 16.509L103.872 16.5465L103.873 16.7545C103.874 17.0585 103.97 17.38 104.06 17.38C104.507 17.38 105.436 17.38 106.364 17.844C106.879 18.1015 107.6 18.2555 108 18.2555C108.399 18.2555 109.12 18.1015 109.635 17.844C110.563 17.38 111.493 17.38 111.939 17.38C112.03 17.38 112.126 17.0585 112.127 16.7545L112.127 16.5465L112.332 16.509C113.007 16.3855 113.346 16.1905 113.675 15.9155C113.713 15.8835 113.758 15.833 113.752 15.777C113.747 15.7215 113.695 15.6625 113.615 15.6185C112.099 14.7915 111.297 12.6795 111.264 12.59L111.192 12.399L113.047 11.239C113.221 11.1075 113.298 10.8595 113.223 10.633C113.176 10.4925 113.077 10.379 112.945 10.3125C112.813 10.246 112.663 10.236 112.522 10.2825L111.249 10.8035V9.05002C111.249 7.23202 109.792 5.75302 108.001 5.75302C106.208 5.75302 104.751 7.23202 104.751 9.05002V10.804L103.463 10.2775C103.414 10.261 103.361 10.2525 103.307 10.2525Z" fill="black"/>
<path opacity="0.07" d="M108 18.5054C108.434 18.5054 109.194 18.3444 109.747 18.0679C110.623 17.6304 111.502 17.6304 111.939 17.6304C112.377 17.6304 112.377 16.7549 112.377 16.7549C113.072 16.6279 113.455 16.4259 113.835 16.1074C114.101 15.8849 114.039 15.5649 113.735 15.3994C112.283 14.6079 111.498 12.5029 111.498 12.5029L113.18 11.4509C113.457 11.2434 113.569 10.8819 113.46 10.5534C113.32 10.1319 112.864 9.90437 112.443 10.0454L111.499 10.4309V9.04987C111.499 7.11787 109.933 5.50287 108.001 5.50287H107.999C106.067 5.50287 104.501 7.11787 104.501 9.04987V10.4314L103.558 10.0459C103.136 9.90487 102.681 10.1324 102.54 10.5539C102.431 10.8819 102.544 11.2434 102.821 11.4514L104.503 12.5034C104.503 12.5034 103.718 14.6079 102.266 15.3999C101.962 15.5654 101.9 15.8859 102.165 16.1079C102.545 16.4264 102.928 16.6284 103.624 16.7554C103.624 16.7554 103.624 17.6309 104.061 17.6309C104.499 17.6309 105.378 17.6309 106.253 18.0684C106.807 18.3444 107.566 18.5054 108 18.5054Z" stroke="black" stroke-width="3"/>
<path d="M108 18.5054C108.434 18.5054 109.194 18.3444 109.747 18.0679C110.623 17.6304 111.502 17.6304 111.939 17.6304C112.377 17.6304 112.377 16.7549 112.377 16.7549C113.072 16.6279 113.455 16.4259 113.835 16.1074C114.101 15.8849 114.039 15.5649 113.735 15.3994C112.283 14.6079 111.498 12.5029 111.498 12.5029L113.18 11.4509C113.457 11.2434 113.569 10.8819 113.46 10.5534C113.32 10.1319 112.864 9.90437 112.443 10.0454L111.499 10.4309V9.04987C111.499 7.11787 109.933 5.50287 108.001 5.50287H107.999C106.067 5.50287 104.501 7.11787 104.501 9.04987V10.4314L103.558 10.0459C103.136 9.90487 102.681 10.1324 102.54 10.5539C102.431 10.8819 102.544 11.2434 102.821 11.4514L104.503 12.5034C104.503 12.5034 103.718 14.6079 102.266 15.3999C101.962 15.5654 101.9 15.8859 102.165 16.1079C102.545 16.4264 102.928 16.6284 103.624 16.7554C103.624 16.7554 103.624 17.6309 104.061 17.6309C104.499 17.6309 105.378 17.6309 106.253 18.0684C106.807 18.3444 107.566 18.5054 108 18.5054Z" fill="white"/>
<path d="M68.6601 35.9751C68.3531 35.7147 67.8708 35.6774 67.3722 35.8776H67.3714C66.8469 36.088 52.5266 42.2305 51.9436 42.4815C51.8376 42.5183 50.9115 42.8638 51.0069 43.6335C51.0921 44.3274 51.8363 44.6148 51.9272 44.6479L55.5679 45.8945C55.8094 46.6986 56.6999 49.665 56.8968 50.2987C57.0196 50.6938 57.2198 51.2129 57.5706 51.3197C57.8785 51.4385 58.1847 51.33 58.3829 51.1744L60.6087 49.1099L64.2019 51.9121L64.2875 51.9633C64.5314 52.0714 64.7652 52.1254 64.9883 52.1254C65.1607 52.1254 65.3261 52.0931 65.4841 52.0284C66.0224 51.8073 66.2378 51.2943 66.2603 51.2362L68.9442 37.2855C69.108 36.5404 68.8804 36.1613 68.6601 35.9751ZM58.7787 46.3932L57.5506 49.6683L56.3224 45.5744L65.7383 38.6148L58.7787 46.3932Z" fill="#2C9AFF"/>
<path fill-rule="evenodd" clip-rule="evenodd" d="M101.452 35H114.548C115.902 35 117 36.098 117 37.452V50.5475C117 51.902 115.902 53 114.548 53H101.452C100.098 53 99 51.902 99 50.548V37.452C99 36.098 100.098 35 101.452 35Z" fill="#212121"/>
<path fill-rule="evenodd" clip-rule="evenodd" d="M110.604 42.3033C111.392 42.8663 112.358 43.1973 113.4 43.1973V41.1918C113.203 41.1918 113.006 41.1713 112.813 41.1303V42.7088C111.771 42.7088 110.806 42.3773 110.017 41.8148V45.9068C110.017 47.9538 108.357 49.6133 106.309 49.6133C105.545 49.6133 104.834 49.3823 104.244 48.9863C104.918 49.6743 105.857 50.1013 106.896 50.1013C108.944 50.1013 110.604 48.4418 110.604 46.3948V42.3033ZM111.329 40.2803C110.926 39.8408 110.662 39.2723 110.604 38.6438V38.3858H110.048C110.188 39.1843 110.666 39.8668 111.329 40.2803ZM105.54 47.4158C105.315 47.1208 105.193 46.7603 105.194 46.3893C105.194 45.4528 105.953 44.6938 106.89 44.6938C107.065 44.6938 107.238 44.7203 107.405 44.7733V42.7233C107.21 42.6968 107.014 42.6853 106.818 42.6893V44.2848C106.651 44.2318 106.478 44.2053 106.303 44.2053C105.366 44.2053 104.606 44.9643 104.606 45.9008C104.607 46.5633 104.986 47.1368 105.54 47.4158Z" fill="#EC407A"/>
<path fill-rule="evenodd" clip-rule="evenodd" d="M110.017 41.8148C110.805 42.3778 111.771 42.7088 112.813 42.7088V41.1303C112.231 41.0063 111.716 40.7023 111.329 40.2798C110.666 39.8663 110.188 39.1843 110.048 38.3858H108.587V46.3948C108.583 47.3283 107.825 48.0843 106.89 48.0843C106.339 48.0843 105.85 47.8218 105.54 47.4153C104.986 47.1363 104.607 46.5628 104.607 45.9008C104.607 44.9643 105.366 44.2053 106.303 44.2053C106.483 44.2053 106.656 44.2333 106.818 44.2848V42.6898C104.806 42.7313 103.188 44.3743 103.188 46.3953C103.188 47.4043 103.591 48.3188 104.245 48.9868C104.835 49.3828 105.546 49.6138 106.31 49.6138C108.358 49.6138 110.018 47.9543 110.018 45.9073L110.017 41.8148Z" fill="white"/>
<path fill-rule="evenodd" clip-rule="evenodd" d="M112.813 41.1311V40.7041C112.288 40.7051 111.774 40.5581 111.328 40.2801C111.722 40.7116 112.241 41.0091 112.813 41.1311ZM110.047 38.3861C110.034 38.3096 110.024 38.2331 110.017 38.1556V37.8976H107.999V45.9071C107.996 46.8406 107.237 47.5966 106.302 47.5966C106.028 47.5966 105.769 47.5316 105.539 47.4156C105.849 47.8221 106.339 48.0846 106.89 48.0846C107.825 48.0846 108.583 47.3286 108.586 46.3951V38.3861H110.047ZM106.817 42.6901V42.2356C106.649 42.2126 106.479 42.2011 106.308 42.2011C104.26 42.2011 102.6 43.8606 102.6 45.9076C102.6 47.1911 103.252 48.3221 104.244 48.9871C103.59 48.3191 103.187 47.4046 103.187 46.3956C103.187 44.3746 104.805 42.7316 106.817 42.6901Z" fill="#81D4FA"/>
<path d="M8.92087 42.2727C12.3865 41.1723 12.9365 37.982 12.4966 35.1212C12.4966 35.1212 12.4966 34.9563 12.6067 35.0111C15.9623 36.6619 19.7029 40.1276 19.7029 45.4633C19.7029 49.4242 16.5675 52.9999 12.0015 52.9999C7.05032 52.9999 4.29999 49.5342 4.29999 45.4085C4.29999 42.9332 5.95037 40.4574 7.87574 39.3574C7.87574 39.3574 8.04064 39.3574 8.04064 39.4675C8.04064 40.0175 8.26081 41.3929 8.8656 42.2178L8.92087 42.2727Z" fill="url(#paint1_radial_2_1748)"/>
<path d="M255.009 53H244.991C242.787 53 241 51.2133 241 49.0092V38.9908C241 36.7867 242.787 35 244.991 35H255.009C257.213 35 259 36.7867 259 38.9908V49.0092C259 51.2133 257.213 53 255.009 53Z" fill="#41A0D7"/>
<path d="M249.844 38.9375C246.825 38.9375 244.377 41.1917 244.377 43.9723C244.377 45.4386 245.058 46.7583 246.144 47.6785L246.287 49.7066C246.291 49.7658 246.326 49.8187 246.378 49.8466C246.431 49.8745 246.494 49.8735 246.545 49.844L248.339 48.8138C248.817 48.9397 249.322 49.0072 249.844 49.0072C252.863 49.0072 255.31 46.7529 255.31 43.9723C255.31 41.1916 252.863 38.9374 249.844 38.9375Z" fill="white"/>
<path d="M245.804 51.4597L245.539 50.5699L245.909 50.4597L246.037 50.8905L246.431 50.6733L246.617 51.0112L245.804 51.4597Z" fill="#C8E6EB"/>
<path d="M247.108 50.7407L246.921 50.4029L248.126 49.7382L248.198 49.7552C248.23 49.7626 248.261 49.7697 248.292 49.7766L248.226 50.074L248.247 50.112L248.214 50.1304L248.209 50.1534C248.2 50.1515 248.191 50.1496 248.183 50.1477L247.108 50.7407ZM249.844 50.3308C249.486 50.3308 249.126 50.3055 248.774 50.2558L248.829 49.8737C249.275 49.9369 249.737 49.9581 250.189 49.9368L250.207 50.3222C250.087 50.3278 249.965 50.3308 249.844 50.3308ZM250.779 50.2735L250.732 49.8906C251.185 49.8348 251.632 49.7354 252.06 49.5953L252.18 49.9621C251.728 50.1099 251.257 50.2147 250.779 50.2735ZM245.376 50.0222L244.976 48.6802L245.346 48.57L245.746 49.9119L245.376 50.0222ZM252.719 49.7623L252.571 49.406C252.992 49.2308 253.394 49.0137 253.768 48.7607L253.984 49.0802C253.59 49.3477 253.164 49.5771 252.719 49.7623ZM254.447 48.7374L254.205 48.437C254.561 48.1503 254.884 47.8278 255.165 47.4786L255.465 47.7206C255.167 48.0913 254.824 48.4334 254.447 48.7374ZM244.748 48.2989C244.401 47.9595 244.094 47.585 243.835 47.1858L244.159 46.9757C244.403 47.3512 244.692 47.7037 245.018 48.0233L244.748 48.2989ZM255.807 47.2557L255.486 47.0413C255.739 46.6625 255.947 46.2578 256.103 45.8387L256.465 45.9735C256.298 46.4207 256.077 46.852 255.807 47.2557ZM243.543 46.6876C243.317 46.2584 243.143 45.8053 243.026 45.341L243.4 45.2464C243.51 45.6813 243.673 46.1057 243.884 46.5079L243.543 46.6876ZM256.641 45.4231L256.268 45.3233C256.385 44.8882 256.448 44.4387 256.458 43.9871L256.844 43.9951C256.833 44.4778 256.765 44.9582 256.641 45.4231ZM242.911 44.7739C242.866 44.4758 242.843 44.1709 242.843 43.8676C242.843 43.689 242.851 43.5086 242.867 43.3316L243.251 43.3657C243.236 43.5315 243.229 43.7003 243.229 43.8676C243.229 44.1516 243.25 44.437 243.293 44.7159L242.911 44.7739ZM256.443 43.446C256.41 42.9965 256.322 42.5508 256.182 42.1214L256.549 42.0018C256.698 42.4607 256.792 42.937 256.828 43.4174L256.443 43.446ZM243.325 42.8299L242.946 42.7588C243.034 42.2873 243.18 41.8244 243.379 41.3831L243.731 41.5418C243.544 41.9551 243.408 42.3885 243.325 42.8299ZM255.99 41.6151C255.811 41.2048 255.583 40.8112 255.311 40.4452L255.621 40.215C255.91 40.6046 256.154 41.0239 256.344 41.4611L255.99 41.6151ZM243.976 41.0589L243.641 40.8682C243.876 40.4542 244.161 40.0626 244.489 39.7041L244.774 39.9643C244.466 40.3015 244.197 40.6698 243.976 41.0589ZM254.968 40.0243C254.67 39.6893 254.332 39.3826 253.964 39.1129L254.192 38.8016C254.582 39.0874 254.941 39.4125 255.257 39.7679L254.968 40.0243ZM245.157 39.5791L244.895 39.2955C245.245 38.9727 245.633 38.6834 246.048 38.4358L246.246 38.7673C245.854 39.0011 245.487 39.2743 245.157 39.5791ZM253.512 38.8097C253.128 38.574 252.716 38.3751 252.288 38.2186L252.421 37.8562C252.873 38.0214 253.308 38.2316 253.714 38.4808L253.512 38.8097ZM246.724 38.5073L246.554 38.1612C246.981 37.9507 247.433 37.7811 247.898 37.6573L247.997 38.0302C247.557 38.1474 247.129 38.308 246.724 38.5073ZM251.77 38.0518C251.335 37.9305 250.884 37.8504 250.43 37.8137L250.461 37.429C250.94 37.4677 251.415 37.5522 251.874 37.6801L251.77 38.0518ZM248.529 37.9103L248.459 37.5308C248.912 37.4468 249.378 37.4042 249.844 37.4042L249.887 37.4044L249.885 37.7902L249.844 37.7901C249.401 37.7902 248.959 37.8306 248.529 37.9103Z" fill="#C8E6EB"/>
<path d="M156 3.04999C154.813 3.04999 151.199 3.04999 149.201 4.87429C148.011 6.05959 147.45 7.77229 147.45 10.25V11.6C147.45 14.0777 148.011 15.7904 149.215 16.9892C149.814 17.5359 150.631 17.9729 151.63 18.2748L151.95 18.3711V20.7687C151.95 21.05 152.032 21.05 152.059 21.05C152.114 21.05 152.203 21.0324 152.371 20.883C152.412 20.843 152.709 20.5217 154.153 18.9035L154.299 18.7401L154.517 18.7541C155.001 18.7842 155.5 18.8 156 18.8C157.188 18.8 160.802 18.8 162.8 16.9752C163.989 15.7899 164.55 14.0772 164.55 11.6V10.25C164.55 7.77229 163.99 6.05959 162.786 4.86079C160.802 3.04999 157.188 3.04999 156 3.04999Z" fill="white"/>
<path d="M160.254 13.7843C159.754 13.3631 159.523 13.2358 158.832 12.8213C158.545 12.649 158.107 12.5 157.877 12.5C157.72 12.5 157.532 12.6202 157.416 12.7354C157.121 13.0306 157.024 13.4 156.507 13.4C156.001 13.4 155.116 12.8848 154.482 12.2188C153.816 11.5843 153.301 10.7 153.301 10.1938C153.301 9.67628 153.663 9.57278 153.959 9.27713C154.074 9.16238 154.201 8.97428 154.201 8.81723C154.201 8.58728 154.052 8.15573 153.879 7.86818C153.465 7.17743 153.338 6.94658 152.916 6.44708C152.774 6.27788 152.611 6.20048 152.441 6.20003C152.154 6.19958 151.776 6.34223 151.52 6.53258C151.136 6.81923 150.734 7.20938 150.627 7.69538C150.612 7.76153 150.604 7.82813 150.601 7.89473C150.58 8.40098 150.779 8.91488 150.994 9.35003C151.499 10.3756 152.168 11.3683 152.896 12.2548C153.128 12.5383 153.382 12.802 153.644 13.0567C153.899 13.3186 154.162 13.5719 154.446 13.805C155.332 14.5327 156.325 15.2014 157.351 15.7067C157.782 15.9191 158.289 16.1144 158.791 16.1C158.862 16.0978 158.934 16.0897 159.005 16.0739C159.491 15.9668 159.881 15.5645 160.168 15.1802C160.358 14.9246 160.501 14.5475 160.501 14.2595C160.5 14.0894 160.423 13.927 160.254 13.7843ZM160.501 11.6C160.252 11.6 160.051 11.3984 160.051 11.15V10.7C160.051 8.46713 158.234 6.65003 156.001 6.65003C155.752 6.65003 155.551 6.44843 155.551 6.20003C155.551 5.95163 155.752 5.75003 156.001 5.75003C158.73 5.75003 160.951 7.97078 160.951 10.7V11.15C160.951 11.3984 160.749 11.6 160.501 11.6ZM157.737 10.7C157.537 10.7 157.354 10.5659 157.302 10.3634C157.178 9.89048 156.809 9.52103 156.338 9.39953C156.097 9.33698 155.953 9.09173 156.015 8.85098C156.077 8.61068 156.322 8.46623 156.564 8.52788C157.35 8.73173 157.967 9.34778 158.172 10.1362C158.235 10.3769 158.091 10.6222 157.851 10.6852C157.812 10.6951 157.774 10.7 157.737 10.7Z" fill="#7E57C2"/>
<path d="M159.15 11.151C158.902 11.151 158.7 10.9494 158.7 10.701C158.7 9.26635 157.578 8.08285 156.145 8.00725C155.897 7.9942 155.706 7.78225 155.719 7.5343C155.732 7.2859 155.948 7.0951 156.192 7.1086C158.103 7.2094 159.6 8.78755 159.6 10.701C159.6 10.9494 159.399 11.151 159.15 11.151Z" fill="#7E57C2"/>
<path d="M156 2.60005C153.975 2.60005 150.82 2.78635 148.897 4.54225C147.538 5.8954 147 7.7935 147 10.2501C147 10.4535 146.999 10.6803 147.001 10.9251C146.999 11.1694 147 11.3962 147 11.5996C147 14.0562 147.538 15.9543 148.897 17.3074C149.629 17.9757 150.542 18.4153 151.5 18.7051V20.7688C151.5 21.487 151.972 21.5001 152.059 21.5001H152.063C152.285 21.4992 152.477 21.3903 152.67 21.2193C152.742 21.1549 153.579 20.2225 154.489 19.2028C155.03 19.2375 155.545 19.2501 156 19.2501C158.025 19.2501 161.18 19.0633 163.103 17.3074C164.461 15.9547 165 14.0562 165 11.5996C165 11.3962 165.001 11.1694 164.999 10.9246C165.001 10.6798 165 10.4535 165 10.2496C165 7.79305 164.462 5.89495 163.103 4.5418C161.18 2.78635 158.025 2.60005 156 2.60005ZM163.65 11.443V11.5996C163.65 13.8073 163.18 15.3117 162.172 16.33C160.425 17.9001 157.097 17.9001 156 17.9001C155.666 17.9001 155.124 17.8996 154.485 17.8551C154.307 18.0549 152.4 20.1874 152.4 20.1874V17.5491C151.453 17.3218 150.518 16.9492 149.829 16.3305C148.82 15.3117 148.35 13.8073 148.35 11.5996V11.443C148.35 11.2851 148.35 11.1145 148.351 10.9152C148.35 10.7352 148.35 10.5651 148.35 10.4067V10.2501C148.35 8.04235 148.82 6.538 149.829 5.51965C151.575 3.9496 154.904 3.9496 156 3.9496C157.097 3.9496 160.425 3.9496 162.171 5.51965C163.18 6.538 163.65 8.04235 163.65 10.2501V10.4067C163.65 10.5646 163.65 10.7352 163.649 10.9345C163.65 11.115 163.65 11.2851 163.65 11.443Z" fill="#7E57C2"/>
<path fill-rule="evenodd" clip-rule="evenodd" d="M21 5.83403C21 5.05145 20.6828 4.34289 20.1699 3.83004C19.6571 3.31719 18.9485 2.99997 18.1659 2.99997H5.83407C5.05148 2.99997 4.34294 3.31719 3.83009 3.83006C3.31722 4.34291 3 5.05145 3 5.83404V18.1659C3 18.9485 3.31721 19.6571 3.83006 20.1699C4.34291 20.6828 5.05146 21 5.83406 21H18.1659C18.9485 21 19.6571 20.6828 20.1699 20.1699C20.6828 19.6571 21 18.9485 21 18.1659V5.83404L21 5.83403Z" fill="#2DC100"/>
<path fill-rule="evenodd" clip-rule="evenodd" d="M14.0328 8.4868C13.4491 7.71821 12.6182 7.17318 11.6939 6.90004C10.7745 6.62837 9.76212 6.6257 8.80874 6.93975C8.08695 7.17754 7.46228 7.52939 6.96764 8.01623C6.50227 8.47429 6.15366 9.04993 5.9494 9.76018C5.72103 10.5545 5.75861 11.338 6.03366 12.0529C6.30974 12.7704 6.82421 13.4164 7.54801 13.9317C7.62742 13.9884 7.67139 14.0354 7.68663 14.0827C7.7019 14.13 7.69327 14.1939 7.66696 14.2821C7.59953 14.5082 7.55203 14.7421 7.50087 14.9939C7.47798 15.1066 7.45434 15.223 7.42987 15.3347L7.34977 15.7L7.664 15.5019C7.81019 15.4097 7.92757 15.3346 8.04123 15.2618C8.34799 15.0653 8.6308 14.8842 8.90497 14.7281C8.94419 14.7058 8.99412 14.6907 9.04811 14.6815C9.11454 14.6702 9.18545 14.6687 9.25072 14.6742C9.55215 14.6998 9.84036 14.7378 10.1425 14.7777C10.2999 14.7984 10.46 14.8196 10.5252 14.8277L10.7158 14.8515L10.6996 14.6586C10.65 14.0678 10.7154 13.5353 10.8922 13.0547C11.0689 12.5742 11.3573 12.1434 11.7536 11.7557C12.1469 11.3709 12.5861 11.0932 13.0665 10.9043C13.5495 10.7143 14.075 10.6137 14.638 10.5841L14.8 10.5756L14.7849 10.4132C14.7506 10.0421 14.6683 9.69986 14.5417 9.38062C14.415 9.06124 14.2443 8.76522 14.0328 8.48682V8.4868ZM12.0832 9.25556C12.269 9.25402 12.4372 9.3265 12.5598 9.44588C12.683 9.56587 12.7604 9.73303 12.7637 9.92012V9.92073L12.7638 9.92609V9.9267C12.7656 10.1183 12.6937 10.289 12.5732 10.4128C12.4529 10.5364 12.285 10.6123 12.0946 10.6146C11.9053 10.6169 11.734 10.5446 11.609 10.4247C11.4832 10.3041 11.4044 10.1355 11.401 9.94609C11.3977 9.76193 11.4744 9.59017 11.5982 9.46424C11.7208 9.33962 11.8911 9.25909 12.0765 9.25564H12.0771L12.0826 9.25556H12.0832V9.25556ZM9.26205 9.47187C9.38292 9.59868 9.45687 9.76988 9.45161 9.95162V9.95224L9.45146 9.9566V9.95722C9.44442 10.144 9.36147 10.3107 9.23294 10.4292C9.10548 10.5467 8.93316 10.617 8.74612 10.6122H8.7455L8.74316 10.6121C8.55434 10.6065 8.38787 10.5276 8.26957 10.4026C8.15114 10.2775 8.08144 10.1066 8.08622 9.91729L8.08628 9.91498V9.91437C8.09183 9.72528 8.17269 9.55758 8.29957 9.43872C8.42594 9.32031 8.59786 9.25026 8.78615 9.25583H8.78677L8.79148 9.25599H8.79209C8.97497 9.2631 9.14228 9.34624 9.26205 9.47187V9.47187Z" fill="#FFFFFE"/>
<path fill-rule="evenodd" clip-rule="evenodd" d="M17.6462 12.3515C17.087 11.6305 16.2228 11.183 15.2985 11.0453C14.372 10.9074 13.3876 11.0811 12.5909 11.6031C12.3268 11.7761 12.098 11.9697 11.9049 12.1784C11.4356 12.6857 11.1681 13.2879 11.1113 13.9047C11.0547 14.5204 11.2083 15.1526 11.581 15.7215C11.7294 15.9481 11.9113 16.1636 12.127 16.3632C12.5307 16.7365 12.977 17.0001 13.4586 17.1572C13.9483 17.317 14.4754 17.3667 15.0324 17.3097C15.1727 17.2954 15.3229 17.2523 15.4719 17.2095C15.7066 17.1421 15.9389 17.0755 16.1815 17.1008C16.4619 17.13 16.7144 17.263 16.9741 17.3999C16.8835 17.1951 16.8704 17.0168 16.923 16.8453C16.9813 16.655 17.1196 16.4879 17.3209 16.3092C17.9091 15.7875 18.2328 15.1158 18.2905 14.4192C18.349 13.7137 18.1348 12.9813 17.6462 12.3515L17.6462 12.3515ZM15.331 12.7592C15.4377 12.6564 15.5824 12.5932 15.7394 12.5942H15.74L15.7567 12.5945H15.7574C15.9171 12.6004 16.0595 12.6698 16.1615 12.7782C16.2627 12.8859 16.3242 13.0321 16.3231 13.1926L16.3228 13.2112C16.3169 13.3717 16.2499 13.5132 16.144 13.6146C16.0379 13.7161 15.8936 13.7772 15.7332 13.7767C15.7233 13.7766 15.7157 13.7765 15.7105 13.7763C15.5521 13.77 15.4113 13.7017 15.3102 13.5951C15.2094 13.4887 15.1481 13.3444 15.1485 13.1856C15.1485 13.1757 15.1487 13.1678 15.1489 13.1623C15.1552 13.0045 15.2245 12.8619 15.331 12.7592V12.7592ZM13.0424 12.5936C13.2026 12.5997 13.3462 12.669 13.4494 12.7765C13.5525 12.8841 13.6158 13.0303 13.6153 13.19V13.1906C13.6153 13.1997 13.6151 13.2066 13.6149 13.2112C13.6087 13.3705 13.5395 13.5129 13.4318 13.6152C13.3245 13.7172 13.1786 13.7797 13.0187 13.7796C12.8592 13.7794 12.7131 13.7156 12.6058 13.6127C12.4984 13.5096 12.4293 13.3665 12.4236 13.2077C12.4234 13.2017 12.4233 13.1941 12.4234 13.1849C12.4241 13.0272 12.4893 12.8819 12.5935 12.7751C12.6977 12.6683 12.8415 12.5991 12.9993 12.5935C13.0053 12.5933 13.0131 12.5932 13.0224 12.5933L13.0424 12.5936V12.5936Z" fill="#FFFFFE"/>
<path d="M195.449 84.5526L196.657 80.1602C195.911 78.8749 195.52 77.4163 195.52 75.9224C195.522 71.2487 199.342 67.4463 204.036 67.4463C206.314 67.4472 208.451 68.3301 210.059 69.9321C211.667 71.5345 212.552 73.6639 212.551 75.9291C212.549 80.6028 208.729 84.4057 204.036 84.4057C204.035 84.4057 204.036 84.4057 204.036 84.4057H204.032C202.607 84.4052 201.207 84.0493 199.963 83.3736L195.449 84.5526Z" fill="white"/>
<path d="M195.449 84.7765C195.389 84.7765 195.332 84.7532 195.289 84.7104C195.233 84.6536 195.211 84.571 195.232 84.4946L196.416 80.1912C195.682 78.8933 195.295 77.4195 195.296 75.9234C195.298 71.1259 199.218 67.2235 204.036 67.2235C206.372 67.2244 208.568 68.1306 210.218 69.775C211.868 71.4198 212.776 73.6055 212.775 75.9296C212.773 80.7266 208.853 84.6295 204.036 84.6295C202.605 84.6291 201.19 84.2776 199.935 83.6126L195.506 84.7689C195.487 84.7742 195.468 84.7765 195.449 84.7765Z" fill="white"/>
<path d="M204.036 67.4466C206.314 67.4475 208.451 68.3304 210.059 69.9324C211.667 71.5348 212.552 73.6643 212.551 75.9294C212.549 80.6032 208.729 84.406 204.036 84.406H204.032C202.607 84.4056 201.207 84.0496 199.963 83.3739L195.449 84.5529L196.657 80.1606C195.912 78.8752 195.52 77.4166 195.52 75.9227C195.522 71.249 199.342 67.4466 204.036 67.4466ZM204.036 67C199.095 67 195.074 71.0025 195.071 75.9227C195.071 77.4265 195.452 78.9083 196.175 80.22L195.016 84.4355C194.974 84.5896 195.017 84.7539 195.13 84.8674C195.215 84.9531 195.33 85 195.449 85C195.487 85 195.525 84.9951 195.563 84.9853L199.907 83.8509C201.176 84.5065 202.597 84.8526 204.032 84.8531C208.976 84.8531 212.998 80.8501 213 75.9299C213.001 73.5455 212.069 71.3035 210.377 69.6171C208.684 67.9303 206.432 67.0009 204.036 67Z" fill="#CFD8DC"/>
<path d="M209.042 70.9445C207.705 69.6128 205.929 68.879 204.038 68.8785C200.134 68.8785 196.959 72.0387 196.957 75.9233C196.957 77.2546 197.331 78.5507 198.04 79.673L198.208 79.9396L197.493 82.5393L200.172 81.8399L200.431 81.9927C201.517 82.6349 202.763 82.9743 204.033 82.9748H204.036C207.937 82.9748 211.112 79.8141 211.113 75.9291C211.114 74.0467 210.378 72.2763 209.042 70.9445Z" fill="#40C351"/>
<path fill-rule="evenodd" clip-rule="evenodd" d="M201.907 72.3795C201.748 72.0267 201.58 72.0195 201.428 72.0133C201.304 72.0079 201.162 72.0083 201.02 72.0083C200.879 72.0083 200.648 72.0615 200.453 72.2736C200.258 72.4858 199.708 72.998 199.708 74.0404C199.708 75.0828 200.471 76.0903 200.577 76.2314C200.683 76.3726 202.049 78.5801 204.211 79.4296C206.009 80.1352 206.375 79.995 206.765 79.9597C207.155 79.9244 208.024 79.4475 208.201 78.9526C208.378 78.4578 208.378 78.0339 208.325 77.9455C208.272 77.8571 208.13 77.8044 207.917 77.6981C207.705 77.5918 206.659 77.0796 206.463 77.009C206.268 76.9384 206.127 76.9031 205.984 77.1153C205.843 77.327 205.435 77.8044 205.311 77.9455C205.187 78.0871 205.062 78.105 204.85 77.9987C204.637 77.8924 203.952 77.6691 203.139 76.9474C202.506 76.386 202.079 75.6924 201.955 75.4803C201.831 75.2686 201.942 75.1538 202.048 75.0479C202.144 74.9528 202.261 74.8005 202.368 74.6768C202.474 74.5531 202.509 74.4647 202.58 74.3236C202.651 74.182 202.616 74.0583 202.562 73.9524C202.51 73.8461 202.096 72.7984 201.907 72.3795Z" fill="white"/>
<rect x="147" y="66.9999" width="18" height="18" rx="4" fill="url(#paint2_linear_2_1748)"/>
<path d="M162.275 76.0843C162.247 75.3256 161.609 74.733 160.848 74.7588C160.511 74.7705 160.19 74.9087 159.947 75.1405C158.874 74.4099 157.614 74.0093 156.319 73.9813L156.93 71.042L158.947 71.466C159.003 71.9836 159.467 72.3582 159.984 72.302C160.502 72.2457 160.876 71.7821 160.82 71.2645C160.764 70.7469 160.3 70.3721 159.783 70.4284C159.485 70.4589 159.218 70.6322 159.071 70.8897L156.761 70.4284C156.605 70.3933 156.448 70.4916 156.413 70.6509V70.6556L155.717 73.925C154.405 73.9461 153.129 74.3489 152.042 75.0843C151.49 74.5644 150.618 74.5902 150.099 75.1453C149.579 75.6979 149.604 76.5691 150.159 77.089C150.267 77.1898 150.391 77.2765 150.529 77.3373C150.52 77.4755 150.52 77.6136 150.529 77.7519C150.529 79.862 152.988 81.5787 156.021 81.5787C159.054 81.5787 161.513 79.8643 161.513 77.7519C161.523 77.6136 161.523 77.4755 161.513 77.3373C161.987 77.1009 162.284 76.6137 162.275 76.0843V76.0843ZM152.853 77.0282C152.853 76.5083 153.277 76.0843 153.797 76.0843C154.316 76.0843 154.74 76.5083 154.74 77.0282C154.74 77.5481 154.316 77.9721 153.797 77.9721C153.274 77.9674 152.853 77.5481 152.853 77.0282ZM158.326 79.6185C157.656 80.122 156.836 80.3796 155.998 80.3446C155.16 80.3796 154.34 80.122 153.67 79.6185C153.581 79.5107 153.597 79.3492 153.705 79.2601C153.799 79.1829 153.932 79.1829 154.028 79.2601C154.595 79.6747 155.286 79.8855 155.989 79.8527C156.691 79.8901 157.385 79.6887 157.958 79.2789C158.061 79.1782 158.23 79.1806 158.331 79.2836C158.431 79.3867 158.429 79.5552 158.326 79.656V79.6185ZM158.157 78.0049C157.637 78.0049 157.214 77.581 157.214 77.061C157.214 76.5411 157.637 76.1172 158.157 76.1172C158.677 76.1172 159.101 76.5411 159.101 77.061C159.122 77.581 158.717 78.0189 158.197 78.0399C158.181 78.0399 158.167 78.0399 158.15 78.0399L158.157 78.0049Z" fill="white"/>
<path d="M162.453 35H149.547C148.14 35 147 36.1401 147 37.5466V50.453C147 51.8599 148.14 53 149.547 53H162.453C163.86 53 165 51.8599 165 50.4534V37.5466C165 36.1401 163.86 35 162.453 35Z" fill="url(#paint3_linear_2_1748)"/>
<path d="M158.864 47.1841C158.864 47.459 158.641 47.682 158.366 47.682H151.023C150.157 47.682 149.455 46.9755 149.455 46.1041V40.8162C149.455 40.5413 149.677 40.3183 149.952 40.3183H157.296C158.162 40.3183 158.864 41.0248 158.864 41.8962V47.1841Z" fill="white"/>
<path d="M162.378 47.3112L159.854 45.6883C159.746 45.6196 159.682 45.501 159.682 45.3738V42.6263C159.682 42.4991 159.746 42.3804 159.854 42.3117L162.378 40.6888C162.627 40.5289 162.954 40.7077 162.954 41.0034V46.9962C162.954 47.2924 162.627 47.4712 162.378 47.3112Z" fill="white"/>
<path d="M198.25 53H209.75C211.545 53 213 51.545 213 49.75V38.25C213 36.455 211.545 35 209.75 35H198.25C196.455 35 195 36.455 195 38.25V49.75C195 51.545 196.455 53 198.25 53Z" fill="#00C300"/>
<path d="M210.556 43.208C210.556 40.2755 207.616 37.8895 204.003 37.8895C200.389 37.8895 197.449 40.2755 197.449 43.208C197.449 45.837 199.78 48.039 202.93 48.4555C203.143 48.5015 203.434 48.5965 203.507 48.7785C203.573 48.944 203.55 49.2035 203.528 49.371C203.528 49.371 203.452 49.8335 203.435 49.932C203.406 50.0975 203.303 50.58 204.002 50.2855C204.702 49.991 207.776 48.063 209.151 46.48H209.151C210.101 45.439 210.556 44.3815 210.556 43.208ZM201.437 44.953H200.135C199.946 44.953 199.792 44.799 199.792 44.609V42.0045C199.792 41.815 199.946 41.661 200.135 41.661C200.325 41.661 200.479 41.815 200.479 42.0045V44.265H201.437C201.627 44.265 201.781 44.419 201.781 44.6085C201.781 44.7985 201.627 44.953 201.437 44.953ZM202.784 44.609C202.784 44.7985 202.63 44.953 202.44 44.953C202.251 44.953 202.097 44.799 202.097 44.609V42.0045C202.097 41.815 202.251 41.661 202.44 41.661C202.63 41.661 202.784 41.815 202.784 42.0045V44.609ZM205.919 44.609C205.919 44.7575 205.825 44.8885 205.684 44.935C205.648 44.947 205.611 44.953 205.575 44.953C205.467 44.953 205.365 44.9015 205.3 44.8155L203.966 42.998V44.609C203.966 44.7985 203.812 44.953 203.622 44.953C203.432 44.953 203.278 44.799 203.278 44.609V42.0045C203.278 41.8565 203.372 41.7255 203.513 41.6785C203.548 41.6665 203.585 41.661 203.622 41.661C203.729 41.661 203.832 41.7125 203.896 41.7985L205.231 43.616V42.0045C205.231 41.815 205.386 41.661 205.575 41.661C205.765 41.661 205.919 41.815 205.919 42.0045V44.609ZM208.026 42.963C208.215 42.963 208.37 43.117 208.37 43.307C208.37 43.4965 208.216 43.6505 208.026 43.6505H207.067V44.2655H208.026C208.215 44.2655 208.37 44.4195 208.37 44.609C208.37 44.7985 208.215 44.953 208.026 44.953H206.724C206.535 44.953 206.38 44.799 206.38 44.609V43.3075C206.38 43.307 206.38 43.307 206.38 43.307V43.3065V42.006C206.38 42.0055 206.38 42.0055 206.38 42.005C206.38 41.8155 206.534 41.6615 206.724 41.6615H208.026C208.215 41.6615 208.37 41.8155 208.37 42.005C208.37 42.1945 208.216 42.3485 208.026 42.3485H207.067V42.9635H208.026V42.963Z" fill="white"/>
<g clip-path="url(#clip0_2_1748)">
<path fill-rule="evenodd" clip-rule="evenodd" d="M8.47401 74.7929C8.47401 74.7844 8.46546 73.4408 9.59887 73.4498C10.739 73.4588 10.7237 74.7929 10.7237 74.7929V80.6489C10.7237 80.6489 10.5775 81.5506 9.59347 81.5488C8.58829 81.547 8.46591 80.6489 8.46591 80.6489L8.47401 74.7929ZM0.375 71.9173C0.375 71.9173 0.410096 70.7466 1.49986 70.7502C2.54148 70.7538 2.62112 71.9412 2.62112 71.9412L2.62472 76.1495L4.87445 73.8998C4.87445 73.8998 5.80493 73.1484 6.44925 73.8998C7.13542 74.6998 6.22428 75.6996 6.22428 75.6996L4.87445 77.0494C4.87445 77.0494 7.12417 80.1963 7.12417 80.424C7.12417 81.0494 6.61618 81.5497 5.99931 81.5497C5.58491 81.5497 5.06747 81.4386 4.87445 81.0989L3.07467 78.3992L2.62472 78.8492V80.6489C2.62472 80.6489 2.47354 81.5479 1.49986 81.5493C0.446541 81.5511 0.375 80.6489 0.375 80.6489V71.9173ZM12.5235 71.9173C12.5235 71.9173 12.5586 70.7466 13.6484 70.7502C14.69 70.7538 14.7696 71.9412 14.7696 71.9412L14.7732 76.1495L17.023 73.8998C17.023 73.8998 17.9534 73.1484 18.5978 73.8998C19.2839 74.6998 18.3728 75.6996 18.3728 75.6996L17.023 77.0494C17.023 77.0494 19.2727 80.1963 19.2727 80.424C19.2727 81.0494 18.7647 81.5497 18.1478 81.5497C17.7334 81.5497 17.216 81.4386 17.023 81.0989L15.2232 78.3992L14.7732 78.8492V80.6489C14.7732 80.6489 14.6221 81.5479 13.6484 81.5493C12.595 81.5511 12.5235 80.6489 12.5235 80.6489V71.9173Z" fill="#5DCD11"/>
</g>
<path d="M113.006 84.9904L103.011 84.9999C100.812 85.0019 99.0118 83.2048 99.0093 81.006L98.9998 71.0113C98.9978 68.8124 100.795 67.0119 102.994 67.0094L112.988 66.9999C115.187 66.9979 116.988 68.7949 116.99 70.9938L117 80.9885C117.002 83.1878 115.205 84.9884 113.006 84.9904Z" fill="url(#paint4_radial_2_1748)"/>
<path d="M113.008 84.995L103.008 85.0045C100.808 85.0065 99.0068 83.2085 99.0043 81.0085L98.9948 71.0085C98.9928 68.8085 100.791 67.007 102.991 67.0045L112.991 66.995C115.191 66.993 116.992 68.791 116.995 70.991L117.004 80.991C117.007 83.1915 115.208 84.993 113.008 84.995Z" fill="url(#paint5_radial_2_1748)"/>
<path d="M108 79.4999C106.07 79.4999 104.5 77.9299 104.5 75.9999C104.5 74.0699 106.07 72.4999 108 72.4999C109.929 72.4999 111.5 74.0699 111.5 75.9999C111.5 77.9299 109.929 79.4999 108 79.4999ZM108 73.4999C106.621 73.4999 105.5 74.6214 105.5 75.9999C105.5 77.3784 106.621 78.4999 108 78.4999C109.378 78.4999 110.5 77.3784 110.5 75.9999C110.5 74.6214 109.378 73.4999 108 73.4999Z" fill="white"/>
<path d="M111.75 73C112.164 73 112.5 72.6642 112.5 72.25C112.5 71.8358 112.164 71.5 111.75 71.5C111.336 71.5 111 71.8358 111 72.25C111 72.6642 111.336 73 111.75 73Z" fill="white"/>
<path d="M111 82.4999H105C103.07 82.4999 101.5 80.9299 101.5 78.9999V72.9999C101.5 71.0699 103.07 69.4999 105 69.4999H111C112.929 69.4999 114.5 71.0699 114.5 72.9999V78.9999C114.5 80.9299 112.929 82.4999 111 82.4999ZM105 70.4999C103.621 70.4999 102.5 71.6214 102.5 72.9999V78.9999C102.5 80.3784 103.621 81.4999 105 81.4999H111C112.378 81.4999 113.5 80.3784 113.5 78.9999V72.9999C113.5 71.6214 112.378 70.4999 111 70.4999H105Z" fill="white"/>
<path d="M60 83.5C55.05 83.5 51 79.45 51 74.5C51 69.55 55.05 65.5 60 65.5C64.95 65.5 69 69.55 69 74.5C69 79.45 66.1 84.75 60 86.5V83.5Z" fill="#4CAF50"/>
<path d="M58.9999 72V75.5C58.9999 77.15 57.6499 78.5 55.9999 78.5V77C56.8499 77 57.4999 76.35 57.4999 75.5H55.4999C55.2499 75.5 54.9999 75.25 54.9999 75V72C54.9999 71.75 55.2499 71.5 55.4999 71.5H58.4999C58.7499 71.5 58.9999 71.75 58.9999 72ZM64.4999 71.5H61.4999C61.2499 71.5 60.9999 71.75 60.9999 72V75C60.9999 75.25 61.2499 75.5 61.4999 75.5H63.4999C63.4999 76.35 62.8499 77 61.9999 77V78.5C63.6499 78.5 64.9999 77.15 64.9999 75.5V72C64.9999 71.75 64.7499 71.5 64.4999 71.5Z" fill="white"/>
<path d="M250 66.4999C245.026 66.4999 241 70.3368 241 75.0262C241 77.4894 242.089 79.6683 243.842 81.2315V85.4473L247.537 83.221C248.295 83.4104 249.147 83.5525 250 83.5525C254.974 83.5525 259 79.7157 259 75.0262C259 70.3368 254.974 66.4999 250 66.4999Z" fill="url(#paint6_linear_2_1748)"/>
<path d="M244.316 77.8681L249.053 72.6576L251.421 75.026L255.684 72.6576L250.948 77.8681L248.579 75.4997L244.316 77.8681Z" fill="white"/>
<path d="M259 18.5C259 19.881 257.881 21 256.5 21H243.5C242.12 21 241 19.881 241 18.5V5.5C241 4.119 242.12 3 243.5 3H256.5C257.881 3 259 4.119 259 5.5V18.5Z" fill="#3F51B5"/>
<path d="M255.184 12.5001H253.5V19.0001H251V12.5001H249.5V10.5001H251V9.29509C251.001 7.54109 251.73 6.50009 253.796 6.50009H255.5V8.50009H254.357C253.552 8.50009 253.5 8.80009 253.5 9.36159V10.5001H255.5L255.184 12.5001Z" fill="white"/>
<path d="M212.609 7.0816C212.39 6.26766 211.748 5.62607 210.934 5.4069C209.447 5 203.5 5 203.5 5C203.5 5 197.553 5 196.066 5.39139C195.268 5.61042 194.61 6.2678 194.391 7.0816C194 8.56828 194 11.6515 194 11.6515C194 11.6515 194 14.7503 194.391 16.2215C194.61 17.0353 195.252 17.677 196.066 17.8962C197.568 18.3031 203.5 18.3031 203.5 18.3031C203.5 18.3031 209.447 18.3031 210.934 17.9117C211.748 17.6927 212.39 17.0509 212.609 16.2371C213 14.7503 213 11.6672 213 11.6672C213 11.6672 213.016 8.56828 212.609 7.0816Z" fill="#FF0000"/>
<path d="M201.606 14.5001L206.552 11.6516L201.606 8.80319V14.5001Z" fill="white"/>
<defs>
<linearGradient id="paint0_linear_2_1748" x1="106.301" y1="2.36573" x2="109.699" y2="21.6346" gradientUnits="userSpaceOnUse">
<stop stop-color="#FEDE00"/>
<stop offset="1" stop-color="#FFD000"/>
</linearGradient>
<radialGradient id="paint1_radial_2_1748" cx="0" cy="0" r="1" gradientUnits="userSpaceOnUse" gradientTransform="translate(12.1781 51.3269) scale(17.4891)">
<stop stop-color="#FE7356"/>
<stop offset="1" stop-color="#FD297C"/>
</radialGradient>
<linearGradient id="paint2_linear_2_1748" x1="156" y1="66.9999" x2="156" y2="84.9999" gradientUnits="userSpaceOnUse">
<stop stop-color="#FF4501"/>
<stop offset="1" stop-color="#EF3E01"/>
</linearGradient>
<linearGradient id="paint3_linear_2_1748" x1="156" y1="55.2586" x2="156" y2="37.2586" gradientUnits="userSpaceOnUse">
<stop stop-color="#155CDE"/>
<stop offset="0.278" stop-color="#1F7FE5"/>
<stop offset="0.569" stop-color="#279CEB"/>
<stop offset="0.82" stop-color="#2CAFEF"/>
<stop offset="1" stop-color="#2EB5F0"/>
</linearGradient>
<radialGradient id="paint4_radial_2_1748" cx="0" cy="0" r="1" gradientUnits="userSpaceOnUse" gradientTransform="translate(105.691 85.0129) scale(22.4377)">
<stop stop-color="#FFDD55"/>
<stop offset="0.328" stop-color="#FF543F"/>
<stop offset="0.348" stop-color="#FC5245"/>
<stop offset="0.504" stop-color="#E64771"/>
<stop offset="0.643" stop-color="#D53E91"/>
<stop offset="0.761" stop-color="#CC39A4"/>
<stop offset="0.841" stop-color="#C837AB"/>
</radialGradient>
<radialGradient id="paint5_radial_2_1748" cx="0" cy="0" r="1" gradientUnits="userSpaceOnUse" gradientTransform="translate(101.893 66.7701) scale(14.9065 9.9322)">
<stop stop-color="#4168C9"/>
<stop offset="0.999" stop-color="#4168C9" stop-opacity="0"/>
</radialGradient>
<linearGradient id="paint6_linear_2_1748" x1="245" y1="84.9999" x2="261" y2="69.9999" gradientUnits="userSpaceOnUse">
<stop stop-color="#447AF6"/>
<stop offset="0.333333" stop-color="#804CF6"/>
<stop offset="0.6875" stop-color="#C855AC"/>
<stop offset="1" stop-color="#E96D6C"/>
</linearGradient>
<clipPath id="clip0_2_1748">
<rect width="24" height="24" fill="white" transform="translate(0 64)"/>
</clipPath>
</defs>
</svg>
