<svg width="24" height="24" viewBox="0 0 24 24" fill="none" xmlns="http://www.w3.org/2000/svg">
<path d="M12.48 21.6V13.92H11.04V11.52H12.48V10.08C12.48 8.15997 13.44 6.71997 15.36 6.71997C16.7534 6.71997 17.76 7.19997 17.76 7.19997V9.11997H16.8C15.7704 9.11997 15.36 9.36189 15.36 10.08V11.52H17.76L17.28 13.92H15.36V21.6" stroke="white" stroke-miterlimit="10" stroke-linecap="round"/>
<path d="M4.31999 21.5999H19.68C20.7403 21.5999 21.6 20.7402 21.6 19.6799V4.3199C21.6 3.25958 20.7403 2.3999 19.68 2.3999H4.31999C3.25967 2.3999 2.39999 3.25958 2.39999 4.3199V19.6799C2.39999 20.7402 3.25967 21.5999 4.31999 21.5999Z" stroke="white" stroke-miterlimit="10" stroke-linecap="round" stroke-linejoin="round"/>
</svg>
