<?xml version="1.0" encoding="UTF-8"?> <!-- Generator: Adobe Illustrator 24.1.2, SVG Export Plug-In . SVG Version: 6.00 Build 0) --> <svg xmlns="http://www.w3.org/2000/svg" xmlns:xlink="http://www.w3.org/1999/xlink" id="Layer_1" x="0px" y="0px" viewBox="0 0 266.46 294.8" style="enable-background:new 0 0 266.46 294.8;" xml:space="preserve"> <style type="text/css"> .st0{clip-path:url(#SVGID_2_);} .st1{fill-rule:evenodd;clip-rule:evenodd;fill:none;stroke:#000;stroke-width:4;stroke-miterlimit:22.9256;} </style> <g> <defs> <ellipse id="SVGID_1_" transform="matrix(0.1622 -0.9868 0.9868 0.1622 -33.832 254.9558)" cx="133.23" cy="147.4" rx="129.66" ry="129.66"></ellipse> </defs> <clipPath id="SVGID_2_"> <use xlink:href="#SVGID_1_" style="overflow:visible;"></use> </clipPath> <g class="st0"> <path class="st1" d="M134.35,15.51c62.88,43.47,45.35,124.51-18.73,123.23c-42.39,2.99-99.3,0.55-113.47-15.83 c9.43-27.72,2.32-67.48,11.75-95.21C54.36,23.55,94.01,19.78,134.35,15.51z"></path> <path class="st1" d="M10.65,105.68c18.96-9.92,71.61-35.28,103.23,6.96c13.62,22.11-10.19,51.49-1.56,67.05 c3.93,5.98,7.8,8.66,16.09,8.56c12.94-0.15,24.5-18.11,36.72-19.16c11.97-1.5,21.72,8.74,24.43,26.4 c4.53,74.33-47.29,101.29-105.73,81.09c-24.81-18.02-49.62-36.04-74.43-54.06c-6.51-26.34-13.03-52.67-19.54-79.01 C-3.2,130.9,3.73,118.29,10.65,105.68z"></path> <path class="st1" d="M84.36,267.54c2.87-29.86,19.21-46.87,39.69-57.76c23.84-12.68,43.16-4.85,65.52-12.14 c33.35-11.97,15.73-48.14,74.25-58.39l8.19,74.58L161.81,293L84.36,267.54z"></path> </g> <use xlink:href="#SVGID_1_" style="overflow:visible;fill:none;stroke:#FFFFFF;stroke-width:4;stroke-miterlimit:10;"></use> </g> <ellipse transform="matrix(0.1622 -0.9868 0.9868 0.1622 -33.832 254.9558)" class="st1" cx="133.23" cy="147.4" rx="129.66" ry="129.66"></ellipse> </svg> 