<svg width="103" height="16" viewBox="0 0 103 16" fill="none" xmlns="http://www.w3.org/2000/svg">
<path d="M44.2658 5.60113C43.7777 5.42048 43.2619 5.32982 42.7424 5.33344C41.0627 5.33344 39.8764 6.19305 39.868 7.42699C39.8575 8.33352 40.711 8.84438 41.3566 9.14727C42.0191 9.45869 42.2406 9.65493 42.2385 9.93328C42.2343 10.3567 41.7094 10.5487 41.2212 10.5487C40.5504 10.5487 40.184 10.4537 39.6202 10.2159L39.4113 10.1167L39.173 11.5373C39.5814 11.7101 40.3173 11.8583 41.0774 11.8711C42.8632 11.8711 44.0306 11.0169 44.0442 9.70399C44.0589 8.97983 43.597 8.43271 42.6249 7.98051C42.0338 7.68722 41.6674 7.49098 41.6674 7.19343C41.6674 6.93 41.9813 6.64844 42.6375 6.64844C43.0741 6.63771 43.5081 6.72094 43.9109 6.89267L44.0684 6.96413L44.3067 5.59154L44.2658 5.60113ZM48.6247 5.44862H47.3124C46.904 5.44862 46.5964 5.56274 46.4179 5.97441L43.8941 11.7826H45.6799L46.0368 10.8302L48.2163 10.8323C48.2678 11.0552 48.4252 11.7826 48.4252 11.7826H50L48.6247 5.44862ZM37.4523 5.3953H39.1541L38.0895 11.7325H36.3898L37.4523 5.39317V5.3953ZM33.1322 8.88811L33.3086 9.76798L34.9715 5.44862H36.7741L34.0959 11.7741H32.2976L30.8278 6.41808C30.804 6.32976 30.7481 6.25391 30.6713 6.20584C30.1416 5.92785 29.5803 5.71688 29 5.57767L29.0231 5.44436H31.7621C32.1338 5.45929 32.433 5.57767 32.5327 5.98081L33.1311 8.89131V8.88811H33.1322ZM46.525 9.53441L47.2032 7.76188C47.1948 7.78107 47.3428 7.39606 47.4289 7.15823L47.5455 7.70535L47.9392 9.53334H46.524V9.53441H46.525Z" fill="#1239B4"/>
<path d="M101.304 4.90996C101.784 4.81544 102.046 4.50907 102.046 4.03254C102.046 2.95465 100.843 3.10972 99.9455 3.10972L99.9455 6.21098H100.581V4.97051H100.668L101.55 6.21098H102.328L101.304 4.90996ZM100.767 4.5469H100.581V3.60522H100.775C101.176 3.60522 101.395 3.764 101.395 4.06284C101.395 4.3805 101.176 4.5469 100.767 4.5469Z" fill="#081D31"/>
<path d="M97.7255 3.11351H99.5245V3.64297H98.361V4.33135H99.4848V4.85319H98.361V5.69283H99.5245V6.21472H97.7255V3.11351Z" fill="#081D31"/>
<path d="M94.9974 3.11351L95.8671 5.20115L96.7487 3.11351H97.4437L96.0339 6.29795H95.6924L94.3025 3.11351H94.9974Z" fill="#081D31"/>
<path d="M92.7776 3.00012C93.7585 3.00012 94.5487 3.75649 94.5487 4.68688C94.5487 5.62104 93.7545 6.3737 92.7776 6.3737C91.7967 6.3737 91.0065 5.61723 91.0065 4.68688C91.0064 3.75272 91.8008 3.00012 92.7776 3.00012Z" fill="url(#paint0_linear_2_1895)"/>
<path d="M90.8198 3.2307V3.94929C90.0217 3.18911 88.9614 3.77159 88.9614 4.66787C88.9614 5.61342 90.0534 6.12401 90.8198 5.39404V6.11263C89.6404 6.65343 88.3061 5.89706 88.3061 4.66787C88.3061 3.48785 89.6206 2.66341 90.8198 3.2307Z" fill="#081D31"/>
<path d="M86.9599 5.73808C87.4126 5.73808 87.8494 5.15946 86.8289 4.81532C86.2333 4.60728 86.0267 4.38419 86.0267 3.95682C86.0267 3.07935 87.2418 2.76927 88.0004 3.41607L87.6668 3.82443C87.2538 3.38577 86.678 3.58995 86.678 3.91909C86.678 4.08544 86.7852 4.17996 87.1664 4.30853C87.8892 4.55816 88.1036 4.78135 88.1036 5.2767C88.1036 6.39246 86.5628 6.69125 85.856 5.70407L86.265 5.32968C86.4119 5.59817 86.6581 5.73808 86.9599 5.73808Z" fill="#081D31"/>
<path d="M85.6098 3.11351H84.9743V6.21472H85.6098V3.11351Z" fill="#081D31"/>
<path d="M103 11.1744V7.31733C101.815 8.02194 94.9534 11.3645 88.2157 12.5694H101.42C102.223 12.5599 103 11.9389 103 11.1744Z" fill="url(#paint1_linear_2_1895)"/>
<path d="M82.9293 3.11351H82V6.21472H82.9292C84.1563 6.21472 84.6805 5.3676 84.6805 4.66792C84.6805 3.75644 83.9657 3.11351 82.9293 3.11351ZM83.6718 5.45078C83.4772 5.61718 83.2112 5.69283 82.8021 5.69283H82.6353V3.64297H82.8021C83.2112 3.64297 83.4653 3.70728 83.6718 3.89255C83.8982 4.08172 84.0253 4.36908 84.0253 4.66787C84.0253 4.96667 83.8982 5.25407 83.6718 5.45078Z" fill="#081D31"/>
<g clip-path="url(#clip0_2_1895)">
<path d="M4.23497 15.9205V14.8615C4.23497 14.4555 3.99857 14.1908 3.59336 14.1908C3.3908 14.1908 3.17132 14.2614 3.01936 14.4908C2.90124 14.2967 2.73243 14.1908 2.47919 14.1908C2.31031 14.1908 2.14159 14.2437 2.00647 14.4379V14.2261H1.65195V15.9205H2.00647V14.985C2.00647 14.685 2.15843 14.5438 2.39483 14.5438C2.63108 14.5438 2.74935 14.7026 2.74935 14.985V15.9205H3.10388V14.985C3.10388 14.685 3.2726 14.5438 3.49208 14.5438C3.72848 14.5438 3.84661 14.7026 3.84661 14.985V15.9205H4.23497ZM9.48521 14.2261H8.91128V13.7142H8.55676V14.2261H8.236V14.5614H8.55668V15.338C8.55668 15.7264 8.70864 15.9558 9.11384 15.9558C9.26581 15.9558 9.43453 15.9029 9.55281 15.8323L9.45145 15.5145C9.35017 15.5851 9.23204 15.6028 9.1476 15.6028C8.9788 15.6028 8.91128 15.4969 8.91128 15.3204V14.5614H9.48521V14.2261ZM12.4903 14.1907C12.2877 14.1907 12.1527 14.2967 12.0682 14.4379V14.2261H11.7137V15.9205H12.0682V14.9674C12.0682 14.685 12.1864 14.5261 12.4058 14.5261C12.4734 14.5261 12.5578 14.5438 12.6253 14.5614L12.7266 14.2085C12.6591 14.1908 12.5578 14.1908 12.4903 14.1908V14.1907ZM7.949 14.3673C7.78012 14.2437 7.54379 14.1908 7.29055 14.1908C6.88543 14.1908 6.61534 14.4026 6.61534 14.7379C6.61534 15.0204 6.81791 15.1792 7.17243 15.2322L7.34123 15.2498C7.52695 15.2851 7.62823 15.338 7.62823 15.4263C7.62823 15.5498 7.49319 15.6381 7.25679 15.6381C7.02047 15.6381 6.83475 15.5498 6.71655 15.4616L6.54775 15.744C6.73347 15.8852 6.98671 15.9558 7.23987 15.9558C7.7126 15.9558 7.98276 15.7264 7.98276 15.4086C7.98276 15.1086 7.76327 14.9497 7.42559 14.8968L7.25679 14.8791C7.10483 14.8614 6.98671 14.8262 6.98671 14.7203C6.98671 14.5967 7.10483 14.5261 7.29055 14.5261C7.49319 14.5261 7.69575 14.6143 7.79703 14.6673L7.949 14.3673ZM17.3692 14.1908C17.1666 14.1908 17.0315 14.2967 16.9471 14.4379V14.2261H16.5926V15.9205H16.9471V14.9674C16.9471 14.685 17.0653 14.5261 17.2847 14.5261C17.3523 14.5261 17.4367 14.5438 17.5043 14.5614L17.6056 14.2085C17.538 14.1908 17.4367 14.1908 17.3692 14.1908ZM12.8448 15.0733C12.8448 15.5851 13.1824 15.9558 13.7058 15.9558C13.9421 15.9558 14.1109 15.9029 14.2797 15.7617L14.1109 15.4616C13.9759 15.5675 13.8408 15.6204 13.6889 15.6204C13.4019 15.6204 13.1993 15.4086 13.1993 15.0733C13.1993 14.7556 13.4019 14.5438 13.6889 14.5261C13.8408 14.5261 13.9759 14.579 14.1109 14.685L14.2797 14.385C14.1109 14.2437 13.9421 14.1908 13.7058 14.1908C13.1824 14.1908 12.8448 14.5614 12.8448 15.0733ZM16.1199 15.0733V14.2261H15.7654V14.4379C15.6472 14.2791 15.4784 14.1908 15.2589 14.1908C14.8031 14.1908 14.4486 14.5614 14.4486 15.0733C14.4486 15.5851 14.8031 15.9558 15.2589 15.9558C15.4953 15.9558 15.6641 15.8676 15.7654 15.7087V15.9205H16.1199V15.0733ZM14.82 15.0733C14.82 14.7732 15.0057 14.5261 15.3095 14.5261C15.5965 14.5261 15.7992 14.7556 15.7992 15.0733C15.7992 15.3733 15.5965 15.6204 15.3095 15.6204C15.0057 15.6027 14.82 15.3733 14.82 15.0733ZM10.5826 14.1908C10.1099 14.1908 9.77221 14.5438 9.77221 15.0733C9.77221 15.6028 10.1098 15.9558 10.5995 15.9558C10.8358 15.9558 11.0722 15.8852 11.2579 15.7264L11.089 15.4616C10.954 15.5675 10.7852 15.6381 10.6164 15.6381C10.3969 15.6381 10.1774 15.5322 10.1267 15.2321H11.3254V15.091C11.3423 14.5438 11.0384 14.1908 10.5825 14.1908H10.5826ZM10.5826 14.5085C10.802 14.5085 10.9541 14.6497 10.9877 14.9145H10.1437C10.1774 14.685 10.3294 14.5085 10.5826 14.5085ZM19.3782 15.0733V13.5554H19.0236V14.4379C18.9054 14.2791 18.7366 14.1908 18.5172 14.1908C18.0614 14.1908 17.7068 14.5614 17.7068 15.0733C17.7068 15.5851 18.0614 15.9558 18.5172 15.9558C18.7536 15.9558 18.9224 15.8676 19.0236 15.7087V15.9205H19.3782V15.0733ZM18.0783 15.0733C18.0783 14.7732 18.2639 14.5261 18.5678 14.5261C18.8548 14.5261 19.0574 14.7556 19.0574 15.0733C19.0574 15.3733 18.8548 15.6204 18.5678 15.6204C18.2639 15.6027 18.0783 15.3733 18.0783 15.0733ZM6.22698 15.0733V14.2261H5.87246V14.4379C5.75426 14.2791 5.58546 14.1908 5.36598 14.1908C4.91017 14.1908 4.55565 14.5614 4.55565 15.0733C4.55565 15.5851 4.91017 15.9558 5.36598 15.9558C5.60238 15.9558 5.77118 15.8676 5.87246 15.7087V15.9205H6.22698V15.0733ZM4.91017 15.0733C4.91017 14.7732 5.09589 14.5261 5.39974 14.5261C5.68674 14.5261 5.88938 14.7556 5.88938 15.0733C5.88938 15.3733 5.68674 15.6204 5.39974 15.6204C5.09589 15.6027 4.91017 15.3733 4.91017 15.0733Z" fill="black"/>
<path d="M7.83105 1.35905H13.1489V11.3491H7.83105V1.35905Z" fill="#FF5F00"/>
<path d="M8.16883 6.35409C8.16883 4.32434 9.08044 2.52398 10.4816 1.35904C9.45188 0.511839 8.15199 0 6.7339 0C3.37423 0 0.65625 2.84165 0.65625 6.35409C0.65625 9.86645 3.37423 12.7082 6.73382 12.7082C8.15191 12.7082 9.4518 12.1963 10.4816 11.3491C9.08044 10.2018 8.16883 8.38384 8.16883 6.35409Z" fill="#EB001B"/>
<path d="M20.3241 6.35409C20.3241 9.86645 17.6062 12.7082 14.2466 12.7082C12.8285 12.7082 11.5286 12.1963 10.4988 11.3491C11.9169 10.1842 12.8116 8.38384 12.8116 6.35409C12.8116 4.32434 11.9 2.52398 10.4988 1.35904C11.5285 0.511839 12.8285 0 14.2466 0C17.6062 0 20.3242 2.85934 20.3242 6.35409H20.3241Z" fill="#F79E1B"/>
</g>
<path fill-rule="evenodd" clip-rule="evenodd" d="M58.9466 15.178V8.25049L58.8072 8.14689V6.86254L59.01 5.88951V0.830072H72.9775V8.40628L73.1551 8.67874V10.9748L72.9523 11.2732V15.178H58.9466Z" fill="white"/>
<path fill-rule="evenodd" clip-rule="evenodd" d="M72.0422 9.17416C71.952 9.25161 71.9131 9.36786 71.9131 9.50989C71.9131 9.98765 72.3006 10.0004 72.675 10.0004H72.7396C72.8298 10.0134 72.8687 10.0263 72.9073 10.0522C72.9462 10.0909 72.9718 10.1294 72.9718 10.194C72.9718 10.2458 72.9462 10.2975 72.9073 10.3231C72.8686 10.362 72.8171 10.3749 72.7266 10.3749H71.9649V10.6848H72.7266C73.1398 10.6848 73.3464 10.5168 73.3464 10.1683C73.3464 10.0133 73.3074 9.91019 73.23 9.83261C73.1398 9.74213 73.0106 9.70347 72.7781 9.70347L72.5588 9.69045C72.4813 9.69045 72.4424 9.69045 72.3908 9.67744C72.3263 9.65179 72.2747 9.58722 72.2747 9.50976C72.2747 9.44519 72.3006 9.39364 72.3522 9.36774C72.4037 9.32882 72.4554 9.32882 72.5329 9.32882H73.2559V9.01899H72.4683C72.2747 9.01911 72.1327 9.0708 72.0422 9.17416Z" fill="white"/>
<path fill-rule="evenodd" clip-rule="evenodd" d="M73.3726 10.1684C73.3726 10.5427 73.1403 10.7104 72.727 10.7104H71.9394V10.349H72.727C72.8045 10.349 72.8561 10.336 72.8947 10.2975C72.9206 10.2845 72.9336 10.2459 72.9336 10.194C72.9336 10.1424 72.9206 10.1038 72.8947 10.0779C72.856 10.0522 72.8175 10.0392 72.7399 10.0392C72.3653 10.0262 71.8749 10.0522 71.8749 9.50992C71.8749 9.25177 72.0299 8.9935 72.4687 8.9935H73.2822V9.36789H72.5333C72.4558 9.36789 72.4172 9.36789 72.3654 9.3938C72.3267 9.41944 72.3138 9.45811 72.3138 9.50992C72.3138 9.57448 72.3527 9.62604 72.4043 9.63905C72.443 9.65207 72.4948 9.6647 72.5593 9.6647H72.7787C73.0112 9.67772 73.1533 9.71651 73.2436 9.80672C73.3339 9.89719 73.3726 10.0004 73.3726 10.1684ZM71.6426 9.80672C71.5522 9.71651 71.3971 9.67759 71.1778 9.6647H70.9582C70.8807 9.6647 70.842 9.65194 70.7902 9.63905C70.7387 9.62604 70.7 9.57448 70.7 9.50992C70.7 9.45811 70.7257 9.41944 70.7646 9.3938C70.8032 9.36789 70.8548 9.36789 70.9323 9.36789H71.6812V8.9935H70.8547C70.4287 8.9935 70.2737 9.25165 70.2737 9.50992C70.2737 10.0522 70.7514 10.0263 71.1387 10.0392C71.2033 10.0392 71.2548 10.0522 71.2807 10.0779C71.3066 10.1038 71.3323 10.1424 71.3323 10.194C71.3323 10.2458 71.3066 10.2845 71.2807 10.2975C71.2421 10.3362 71.1903 10.349 71.1131 10.349H70.3252V10.7104H71.1257C71.5389 10.7104 71.7713 10.5427 71.7713 10.1684C71.7715 10.0004 71.72 9.89719 71.6426 9.80672ZM70.0802 10.3621H69.112V10.0134H70.0546V9.66483H69.112V9.35501H70.0802V8.99363H68.6988V10.7105H70.0802V10.3621ZM68.2598 9.07083C68.1307 9.00626 67.9757 8.99363 67.7691 8.99363H66.8138V10.7105H67.227V10.091H67.6788C67.8209 10.091 67.9111 10.104 67.9757 10.1685C68.0531 10.2459 68.0402 10.4007 68.0402 10.4912V10.7105H68.4534V10.3751C68.4534 10.22 68.4404 10.1426 68.3888 10.065C68.3502 10.0134 68.2727 9.94887 68.1822 9.91021C68.2713 9.87319 68.3472 9.81033 68.4001 9.72974C68.4531 9.64915 68.4807 9.55453 68.4793 9.45811C68.4794 9.26441 68.389 9.14829 68.2598 9.07083ZM65.9359 8.9935H64.619L64.1026 9.56147L63.5991 8.9935H61.9334V10.7104H63.5732L64.0896 10.1424L64.5931 10.7104H65.3936V10.1424H65.91C66.2715 10.1424 66.6201 10.0392 66.6201 9.56147C66.6201 9.08372 66.2586 8.9935 65.9359 8.9935ZM67.9371 9.70362C67.8725 9.72927 67.808 9.72927 67.7305 9.72927H67.2271V9.35488H67.7435C67.8081 9.35488 67.8856 9.35488 67.9372 9.38078C67.9888 9.40643 68.0147 9.45798 68.0147 9.53556C68.0147 9.61315 67.9887 9.6647 67.9371 9.70362ZM65.9359 9.78107H65.3936V9.35488H65.9359C66.0779 9.35488 66.1813 9.40643 66.1813 9.56147C66.1813 9.70362 66.0908 9.78107 65.9359 9.78107ZM64.3607 9.85853L64.9934 9.17419V10.5556L64.3607 9.85853ZM63.3537 10.3621H62.3466V10.0134H63.2505V9.66483H62.3466V9.35501H63.3796L63.8314 9.85866L63.3537 10.3621ZM72.2362 7.75396H71.6553L70.8807 6.46286V7.75396H70.0416L69.8736 7.36655H69.0215L68.8667 7.75396H68.389C68.1824 7.75396 67.9371 7.71517 67.7951 7.56026C67.6531 7.41823 67.5755 7.22453 67.5755 6.90169C67.5755 6.65644 67.6144 6.42407 67.7951 6.23037C67.9242 6.10123 68.1308 6.03667 68.4149 6.03667H68.8152V6.39817H68.4276C68.2728 6.39817 68.1954 6.42407 68.1049 6.50153C68.0403 6.57898 67.9888 6.721 67.9888 6.90169C67.9888 7.08251 68.0277 7.21164 68.1049 7.30199C68.1695 7.36655 68.2859 7.39233 68.3891 7.39233H68.5698L69.1508 6.03667H69.7705L70.4676 7.66349V6.03679H71.0874L71.8104 7.23755V6.03679H72.2364V7.75396H72.2362ZM67.3691 6.03679H66.956V7.75396H67.3691V6.03679ZM66.5041 6.11425C66.375 6.03679 66.2199 6.03679 66.0133 6.03679H65.058V7.75396H65.4712V7.13419H65.9101C66.0649 7.13419 66.1554 7.1472 66.2071 7.19875C66.2845 7.2891 66.2845 7.43112 66.2845 7.53448V7.75396H66.6977V7.41823C66.6977 7.26332 66.6847 7.18587 66.6202 7.10841C66.5943 7.05673 66.5167 6.99216 66.4265 6.9535C66.5298 6.91471 66.7107 6.77268 66.7107 6.50153C66.7107 6.30795 66.6331 6.19183 66.5041 6.11425ZM64.7738 7.39246H63.8184V7.05686H64.748V6.70824H63.8184V6.39842H64.7738V6.03692H63.4054V7.75409H64.7739V7.39246H64.7738ZM63.0955 6.03679H62.4112L61.9206 7.19875L61.3782 6.03679H60.7069V7.66362L60.0097 6.03679H59.4029L58.667 7.75396H59.106L59.2738 7.36655H60.1259L60.2808 7.75396H61.1201V6.41118L61.714 7.75396H62.0755L62.6695 6.41118V7.75396H63.0955V6.03679ZM69.7317 7.01807L69.4476 6.33385L69.1764 7.01807H69.7317ZM66.1684 6.74691C66.1168 6.77269 66.052 6.77268 65.9747 6.77268H65.4712V6.39829H65.9747C66.052 6.39829 66.1295 6.3983 66.1684 6.4242C66.233 6.44997 66.2586 6.50165 66.2586 6.57911C66.2586 6.65656 66.233 6.70812 66.1684 6.74691ZM59.4158 7.01807L59.6999 6.33385L59.9839 7.01807H59.4158ZM73.2823 0.665945H58.667V6.83725L59.1577 5.70119H60.2293L60.3713 5.98524V5.70119H61.6236L61.8948 6.30795L62.1659 5.70119H66.1555C66.3362 5.70119 66.5041 5.72697 66.6204 5.83033V5.70119H67.7178V5.83033C67.8985 5.72697 68.1309 5.70119 68.4021 5.70119H69.9773L70.132 5.98524V5.70119H71.2941L71.4618 5.98524V5.70119H72.598V8.08956H71.4488L71.2294 7.72806V8.08956H69.7964L69.6414 7.71517H69.2798L69.125 8.08956H68.3761C68.0793 8.08956 67.8597 8.02499 67.7176 7.94766V8.08956H65.9359V7.54737C65.9359 7.46991 65.923 7.46991 65.8713 7.46991H65.8068V8.08956H62.3724V7.79262L62.2563 8.08956H61.5333L61.417 7.80551V8.08956H60.0356L59.8807 7.71517H59.5192L59.3643 8.08956H58.667V15.3326H73.2823V10.943C73.1144 11.0205 72.8948 11.0592 72.6755 11.0592H71.6167V10.9041C71.4876 10.9946 71.2681 11.0592 71.0614 11.0592H67.7045V10.4912C67.7045 10.4266 67.6917 10.4266 67.627 10.4266H67.5755V11.0592H66.4652V10.4007C66.2845 10.4782 66.0649 10.4912 65.8971 10.4912H65.7551V11.0592H64.4253L64.0896 10.6848L63.741 11.0592H61.5721V8.6579H63.7798L64.1026 9.01928L64.4382 8.6579H65.923C66.0908 8.6579 66.375 8.67066 66.5041 8.78704V8.6579H67.821C67.9501 8.6579 68.2213 8.68355 68.389 8.78704V8.6579H70.3903V8.78704C70.4935 8.69657 70.7001 8.6579 70.8808 8.6579H72.0041V8.78704C72.1202 8.70958 72.2883 8.6579 72.5205 8.6579H73.2825V0.665945H73.2823Z" fill="#0077A6"/>
<defs>
<linearGradient id="paint0_linear_2_1895" x1="92.7776" y1="3.00012" x2="92.7776" y2="6.37369" gradientUnits="userSpaceOnUse">
<stop stop-color="#DE5214"/>
<stop offset="1" stop-color="#F38D1D"/>
</linearGradient>
<linearGradient id="paint1_linear_2_1895" x1="95.6078" y1="7.31733" x2="95.6078" y2="12.5694" gradientUnits="userSpaceOnUse">
<stop stop-color="#E35E17"/>
<stop offset="1" stop-color="#F38E1D"/>
</linearGradient>
<clipPath id="clip0_2_1895">
<path d="M0 4C0 1.79086 1.79086 0 4 0H17C19.2091 0 21 1.79086 21 4V16H0V4Z" fill="white"/>
</clipPath>
</defs>
</svg>
