<svg width="24" height="24" viewBox="0 0 24 24" fill="none" xmlns="http://www.w3.org/2000/svg">
<path d="M11.712 5.28007C15.168 5.28007 17.952 5.56807 19.296 5.80807C20.016 6.00007 20.592 6.48007 20.688 7.10407C20.976 8.64007 21.168 10.2721 21.168 11.9521C21.12 14.0161 20.88 15.6961 20.688 16.8961C20.544 17.8081 19.584 18.0961 19.296 18.1921C17.568 18.5281 14.688 18.7681 11.808 18.7681C8.928 18.7681 6 18.5761 4.32 18.1921C3.6 18.0001 3.024 17.5201 2.928 16.8961C2.544 15.5521 2.4 13.7761 2.4 12.0001C2.4 9.79207 2.592 8.16007 2.784 7.15207C2.928 6.24007 3.936 5.95207 4.176 5.85607C5.76 5.52007 8.688 5.28007 11.712 5.28007ZM11.712 4.32007C8.544 4.32007 5.568 4.56007 3.984 4.89607C2.928 5.13607 2.016 5.85607 1.824 6.96007C1.632 8.11207 1.44 9.84007 1.44 12.0001C1.44 14.1601 1.632 15.8401 1.872 17.0401C2.064 18.0961 2.976 18.8641 4.032 19.1041C5.712 19.4401 8.592 19.6801 11.76 19.6801C14.928 19.6801 17.808 19.4401 19.488 19.1041C20.544 18.8641 21.456 18.1441 21.648 17.0401C21.84 15.8401 22.08 14.1121 22.128 11.9521C22.128 9.79207 21.888 8.06407 21.648 6.86407C21.456 5.80807 20.544 5.04007 19.488 4.80007C17.808 4.56007 14.88 4.32007 11.712 4.32007Z" fill="white"/>
<path d="M10.08 9.79191L13.92 11.9999L10.08 14.2079V9.79191ZM9.12 8.15991V15.8399L15.84 11.9999L9.12 8.15991Z" fill="white"/>
</svg>
